<?xml version="1.0" encoding="UTF-8" standalone="no"?>
<svg
   version="1.1"
   width="512"
   height="512"
   id="svg8"
   sodipodi:docname="film-reel_10908988.svg"
   inkscape:version="1.4 (e7c3feb1, 2024-10-09)"
   xmlns:inkscape="http://www.inkscape.org/namespaces/inkscape"
   xmlns:sodipodi="http://sodipodi.sourceforge.net/DTD/sodipodi-0.dtd"
   xmlns:xlink="http://www.w3.org/1999/xlink"
   xmlns="http://www.w3.org/2000/svg"
   xmlns:svg="http://www.w3.org/2000/svg">
  <defs
     id="defs8">
    <linearGradient
       id="linearGradient1"
       inkscape:collect="always">
      <stop
         style="stop-color:#ffb240;stop-opacity:1;"
         offset="0"
         id="stop1" />
      <stop
         style="stop-color:#ff406d;stop-opacity:1;"
         offset="1"
         id="stop2" />
    </linearGradient>
    <linearGradient
       id="linearGradient95"
       inkscape:collect="always">
      <stop
         style="stop-color:#ffc837;stop-opacity:1;"
         offset="0"
         id="stop96" />
      <stop
         style="stop-color:#ff3d6e;stop-opacity:1;"
         offset="1"
         id="stop97" />
    </linearGradient>
    <linearGradient
       inkscape:collect="always"
       xlink:href="#linearGradient95"
       id="linearGradient97"
       x1="-198.56918"
       y1="58.351234"
       x2="114.58276"
       y2="382.62955"
       gradientUnits="userSpaceOnUse" />
    <linearGradient
       inkscape:collect="always"
       xlink:href="#linearGradient1"
       id="linearGradient2"
       x1="-90.633331"
       y1="-2.7958193"
       x2="-4.2784133"
       y2="120.53178"
       gradientUnits="userSpaceOnUse" />
  </defs>
  <sodipodi:namedview
     id="namedview8"
     pagecolor="#ffffff"
     bordercolor="#999999"
     borderopacity="1"
     inkscape:showpageshadow="2"
     inkscape:pageopacity="0"
     inkscape:pagecheckerboard="0"
     inkscape:deskcolor="#d1d1d1"
     inkscape:zoom="0.71327307"
     inkscape:cx="242.54385"
     inkscape:cy="367.32075"
     inkscape:window-width="1424"
     inkscape:window-height="823"
     inkscape:window-x="0"
     inkscape:window-y="38"
     inkscape:window-maximized="0"
     inkscape:current-layer="svg8" />
  <path
     d="M0 0 C1.4240918 0.29003906 1.4240918 0.29003906 2.87695312 0.5859375 C32.4362514 6.66670743 61.5852817 17.96175143 86 36 C87.24449847 36.8871302 88.48931425 37.77381536 89.734375 38.66015625 C99.53507608 45.73283936 108.34438187 53.58103767 117 62 C117.79148437 62.75152344 118.58296875 63.50304687 119.3984375 64.27734375 C124.7553721 69.45430229 129.38293833 75.16348184 134 81 C134.81726563 82.01191406 135.63453125 83.02382812 136.4765625 84.06640625 C142.77437362 91.95303058 148.07648445 100.1975931 153 109 C153.4345752 109.76812012 153.86915039 110.53624023 154.31689453 111.32763672 C166.34811534 132.77013575 174.09905336 154.93635199 179 179 C179.17789062 179.81275391 179.35578125 180.62550781 179.5390625 181.46289062 C185.02763502 207.14156921 184.51900947 238.38346546 179 264 C178.80132324 264.94327148 178.60264648 265.88654297 178.39794922 266.85839844 C169.25660316 309.05238677 149.43838125 345.59084845 120 377 C119.48695313 377.55429687 118.97390625 378.10859375 118.4453125 378.6796875 C115.33216864 381.94019912 113.20857522 382.86318016 108.6875 383.375 C103.79698299 382.87765929 102.42915508 381.42915508 99 378 C97.21800435 374.4360087 97.25755655 370.87443181 98 367 C99.90643437 363.91026154 102.41338755 361.52902553 105 359 C133.18528691 329.72013884 149.67208864 292.5897549 157 253 C157.20133545 251.91332031 157.20133545 251.91332031 157.40673828 250.8046875 C164.47015804 210.27198338 156.56385507 165.03585215 137.03710938 128.92236328 C135.99926346 126.99863477 134.99158756 125.06100072 133.984375 123.12109375 C124.8562396 105.88859925 112.78798983 90.72406406 99 77 C98.47615723 76.4735791 97.95231445 75.9471582 97.41259766 75.40478516 C77.89248193 55.98310052 53.66594135 41.67377027 28 32 C27.36465332 31.75701172 26.72930664 31.51402344 26.07470703 31.26367188 C-15.93239783 15.44764205 -63.67011005 15.84834409 -106 30 C-106.72219727 30.23976562 -107.44439453 30.47953125 -108.18847656 30.7265625 C-118.58509589 34.24526955 -128.31935687 38.8536452 -138 44 C-139.13824219 44.59296875 -140.27648437 45.1859375 -141.44921875 45.796875 C-158.03189463 54.81045492 -172.71905125 66.65718948 -186 80 C-186.5264209 80.52384277 -187.0528418 81.04768555 -187.59521484 81.58740234 C-216.42339062 110.56168227 -234.00831446 149.05125677 -241 189 C-241.226875 190.29292969 -241.45375 191.58585938 -241.6875 192.91796875 C-247.53929733 233.43353776 -240.54605608 276.99706596 -221.03710938 313.07763672 C-219.99926346 315.00136523 -218.99158756 316.93899928 -217.984375 318.87890625 C-208.8562396 336.11140075 -196.78798983 351.27593594 -183 365 C-182.21423584 365.78963135 -182.21423584 365.78963135 -181.41259766 366.59521484 C-154.8224179 393.05131238 -119.78606837 410.38931716 -83.3125 418.25 C-82.61382812 418.40114258 -81.91515625 418.55228516 -81.1953125 418.70800781 C-65.76472362 421.82082697 -50.6501494 422.29141516 -34.96606445 422.27124023 C-32.68612992 422.27563603 -30.40619699 422.28094126 -28.12626648 422.28707886 C-23.24939813 422.29850672 -18.37257281 422.30403287 -13.4956913 422.30496025 C-5.78486351 422.30691189 1.92587577 422.32502074 9.63667297 422.34571838 C20.44226589 422.3733999 31.24785179 422.39642382 42.0534668 422.41333008 C43.07866137 422.4149391 43.07866137 422.4149391 44.12456695 422.41658062 C51.76401209 422.42842212 59.40345802 422.43862931 67.04290771 422.44702148 C69.82214357 422.45009635 72.60137942 422.45318497 75.38061523 422.45629883 C76.06656762 422.45706417 76.75252 422.45782951 77.45925882 422.45861804 C88.8944212 422.47169612 100.32951483 422.49647754 111.76463729 422.53004223 C119.43206505 422.55183398 127.09934654 422.55987529 134.76680315 422.55764949 C139.5252526 422.55931295 144.28360581 422.57333941 149.0420208 422.59086227 C151.25074313 422.59647283 153.45948531 422.59693691 155.66820908 422.59192467 C158.67861946 422.58580789 161.68841912 422.59797003 164.69877625 422.61473083 C165.57599813 422.60851902 166.45322001 422.6023072 167.35702437 422.59590715 C173.10851779 422.65442393 176.20230103 423.83285463 180.78515625 427.3828125 C182.91391568 430.21659515 182.45805687 433.13387065 182.36328125 436.55078125 C181.85843014 439.95445483 180.51318492 441.70856669 178 444 C174.56383786 445.71808107 170.60910353 445.14404356 166.82743835 445.14044189 C165.86457737 445.14341302 164.90171639 445.14638414 163.9096778 445.1494453 C160.6620259 445.1581618 157.41441074 445.15964311 154.16674805 445.16113281 C151.84587525 445.16575938 149.52500322 445.17078382 147.20413208 445.17617798 C140.87866233 445.18933086 134.55320322 445.19575407 128.22772193 445.20018864 C124.27063145 445.2031184 120.31354387 445.20722332 116.35645485 445.21169281 C105.38383841 445.22381307 94.4112245 445.23418795 83.43860149 445.2375679 C82.73569545 445.23778747 82.03278941 445.23800703 81.30858319 445.23823325 C80.60403146 445.23845153 79.89947974 445.23866981 79.17357796 445.2388947 C77.74600836 445.23933816 76.31843875 445.23978472 74.89086914 445.24023438 C74.18275173 445.2404558 73.47463432 445.24067723 72.74505881 445.24090537 C61.31682456 445.24483818 49.88865467 445.26224059 38.46044519 445.2855939 C26.70475893 445.30942022 14.94910476 445.32177514 3.19339401 445.32293582 C-3.39742681 445.3238472 -9.98817394 445.32978674 -16.57897377 445.34775543 C-22.79649018 445.36437369 -29.0138496 445.36632559 -35.23138046 445.35761642 C-37.49788398 445.356853 -39.76439639 445.36109547 -42.03087807 445.37107468 C-59.82816259 445.44475315 -77.24080216 444.06782924 -94.5625 439.75 C-95.41416748 439.54165527 -96.26583496 439.33331055 -97.14331055 439.11865234 C-122.90047073 432.58279368 -148.36932068 421.50152877 -170 406 C-170.59603027 405.57912109 -171.19206055 405.15824219 -171.80615234 404.72460938 C-182.07910279 397.43631467 -191.34072664 389.38335474 -200.35693359 380.59619141 C-201.68823495 379.30287071 -203.0385891 378.0291818 -204.39453125 376.76171875 C-210.66078687 370.80175668 -215.81177518 363.89132798 -221 357 C-221.43103027 356.42975098 -221.86206055 355.85950195 -222.30615234 355.27197266 C-243.04258111 327.6367089 -255.95598821 296.70108958 -263 263 C-263.18079102 262.17999512 -263.36158203 261.35999023 -263.54785156 260.51513672 C-268.96936103 235.12673603 -268.54137771 204.31767137 -263 179 C-262.70996094 177.5759082 -262.70996094 177.5759082 -262.4140625 176.12304688 C-256.33329257 146.5637486 -245.03824857 117.4147183 -227 93 C-226.1128698 91.75550153 -225.22618464 90.51068575 -224.33984375 89.265625 C-217.70767934 80.07492685 -210.44574118 71.71137354 -202.54541016 63.59228516 C-201.2180971 62.22471237 -199.90983314 60.83869664 -198.60546875 59.44921875 C-192.32712101 52.89131564 -185.24313982 47.43721995 -178 42 C-177.43120117 41.57041992 -176.86240234 41.14083984 -176.27636719 40.69824219 C-148.64014266 19.95909969 -117.70352644 7.04452113 -84 0 C-83.17999512 -0.18079102 -82.35999023 -0.36158203 -81.51513672 -0.54785156 C-56.12673603 -5.96936103 -25.31767137 -5.54137771 0 0 Z "
     fill="#FF8C3D"
     transform="translate(298,35)"
     id="path1"
     style="fill:url(#linearGradient97);fill-opacity:1;fill-rule:nonzero" />
  <path
     d="M0 0 C14.67693915 12.68559564 25.14207654 29.6163869 27.5625 49.125 C29.03035742 71.15575984 24.42300189 91.82782049 9.671875 108.89453125 C-3.92392625 123.2708322 -21.66873727 133.49708766 -41.8359375 134.36328125 C-63.46469509 134.85068987 -83.35899349 129.33059284 -99.4375 114.125 C-113.56664816 100.5420206 -122.28689565 81.98336094 -122.73046875 62.29980469 C-122.90148466 39.97367809 -115.81259595 21.03790575 -100.203125 4.80078125 C-90.9928946 -4.06331304 -79.69674384 -10.29703329 -67.4375 -13.875 C-66.71175781 -14.09929687 -65.98601562 -14.32359375 -65.23828125 -14.5546875 C-42.71061134 -20.29472207 -18.20355917 -13.89885352 0 0 Z M-88.4375 25.125 C-97.25767774 36.57602386 -102.23119239 50.59243103 -100.4375 65.125 C-97.59298939 80.37029844 -90.94303815 92.80333715 -78.49609375 102.390625 C-66.1531471 110.5687737 -52.33167224 114.15766526 -37.7109375 111.4296875 C-22.69140273 108.0414677 -10.65605522 99.92100485 -2.0625 87.0625 C5.82315741 73.43020967 7.27951067 59.13966243 3.3972168 44.02099609 C1.71264423 38.04603883 -0.66942097 33.09278132 -4.4375 28.125 C-5.07429688 27.28453125 -5.71109375 26.4440625 -6.3671875 25.578125 C-16.28653901 13.5877001 -29.21668716 7.60818335 -44.52734375 5.75 C-61.67765624 5.01334228 -76.9961461 12.69280989 -88.4375 25.125 Z "
     fill="#FF913B"
     transform="translate(303.4375,196.875)"
     id="path2"
     style="fill:url(#linearGradient2);fill-opacity:1" />
  <path
     d="M0 0 C8.70346971 6.46879505 15.91604139 15.46383541 18.0625 26.375 C19.48570202 39.71751898 18.07567194 51.56682272 10.0625 62.625 C3.20401008 70.8306933 -5.15526645 76.41213429 -15.6875 78.71875 C-30.21214964 79.59685072 -42.05321366 78.28234685 -53.6875 68.71875 C-61.64843754 61.34804472 -67.21744534 51.9930385 -67.92578125 41.03125 C-68.29835677 26.73033788 -65.63642711 15.59395653 -55.6875 4.71875 C-39.91222848 -9.14905405 -17.81936444 -11.6511229 0 0 Z M-40.4375 22.53125 C-44.91813558 27.95153322 -46.30646699 32.66252631 -45.6875 39.71875 C-43.4409977 46.70786826 -39.73256083 51.90342528 -33.4375 55.65625 C-27.17867568 57.42958356 -21.4113256 57.81579117 -15.375 55.09375 C-9.68821877 51.81467856 -6.18774857 47.02413714 -4.12890625 40.859375 C-3.04806795 35.61778751 -3.93415298 30.69660914 -6.375 25.96875 C-9.64020064 21.37981937 -13.38861047 17.86489522 -18.6875 15.71875 C-27.8719592 14.7337871 -34.02111527 15.66873627 -40.4375 22.53125 Z "
     fill="#FF9D37"
     transform="translate(160.6875,289.28125)"
     id="path3"
     style="fill:#ff7658;fill-opacity:1" />
  <path
     d="M0 0 C9.69242413 6.95288386 16.11995831 16.46391612 18.3125 28.3125 C19.20255131 42.86141557 16.76980464 53.93664943 7.56640625 65.5078125 C-0.19106129 73.99103064 -10.71951215 78.49452433 -22.04296875 79.52734375 C-33.20395729 79.97094425 -42.59406453 76.59370635 -51.6875 70.3125 C-53.0178125 69.44625 -53.0178125 69.44625 -54.375 68.5625 C-63.01429416 60.15670027 -67.65582405 49.9740915 -68.15795898 37.96704102 C-68.32836993 25.17776983 -64.54229837 14.45980368 -55.58203125 5.1171875 C-39.99626639 -9.42237283 -18.06077684 -10.98952353 0 0 Z M-41.0625 22.6875 C-45.12641526 27.87782656 -46.2534443 32.74754613 -45.6875 39.3125 C-44.28402123 45.76850236 -40.94508435 50.34248733 -35.6875 54.3125 C-30.18395742 57.03243261 -24.70195405 57.07016499 -18.6875 56.3125 C-13.03387313 54.1529999 -9.04311069 50.2472216 -5.6875 45.3125 C-3.41509098 39.83806008 -3.19181271 34.9922014 -4.6875 29.3125 C-7.32989375 23.2053908 -11.07743285 19.74087437 -16.6875 16.3125 C-26.01828779 13.2022374 -34.48875822 15.5262499 -41.0625 22.6875 Z "
     fill="#FFBF2A"
     transform="translate(160.6875,150.6875)"
     id="path4"
     style="fill:#ffb240;fill-opacity:1" />
  <path
     d="M0 0 C9.19473316 6.5794155 16.27934605 15.98783249 18.3125 27.3125 C19.14481002 40.19283866 18.57447421 52.14616366 9.92578125 62.51171875 C9.39339844 63.10597656 8.86101562 63.70023437 8.3125 64.3125 C7.81105469 64.91707031 7.30960937 65.52164063 6.79296875 66.14453125 C-0.238316 73.99698794 -10.77744355 78.63590108 -21.19921875 79.52734375 C-34.65325768 80.00715969 -46.07155277 75.74352699 -55.9375 66.625 C-65.36122413 56.6480613 -68.2127163 45.50734999 -68 32.1328125 C-66.96045305 19.424351 -60.78492467 9.24851231 -51.1953125 1.10546875 C-35.80801222 -9.89573191 -15.84523447 -9.64142233 0 0 Z M-40.5 22.0625 C-44.55090694 28.08099031 -46.38636254 32.93425142 -45.1875 40.21484375 C-43.62458425 46.77176372 -40.02271142 50.50327378 -34.6875 54.3125 C-29.36092272 57.2580254 -24.59307228 57.77543052 -18.6875 56.3125 C-12.67881654 54.29131424 -8.65348474 50.8863794 -5.59375 45.32421875 C-3.21752359 39.65867892 -2.91347953 34.7205637 -4.8125 28.8125 C-7.70453655 23.41403178 -10.63678697 19.53504046 -15.9375 16.375 C-25.60267814 13.63653286 -33.27159478 14.99472601 -40.5 22.0625 Z "
     fill="#FF8440"
     transform="translate(400.6875,150.6875)"
     id="path5"
     style="fill:#ff7658;fill-opacity:1" />
  <path
     d="M0 0 C8.81661006 7.13461527 14.20945032 15.53634696 16.86328125 26.5078125 C18.02845337 41.35240797 15.38666018 52.47664059 6.41015625 64.4453125 C0.75777529 70.8399253 -8.77330986 75.75628713 -17.13671875 77.5078125 C-31.67192469 78.38655141 -43.48789796 77.06198294 -55.13671875 67.5078125 C-63.22045382 60.15497571 -68.66506358 50.21756053 -69.33984375 39.1875 C-69.51554027 24.92679875 -66.32800625 13.9924637 -56.51171875 3.2578125 C-40.90019537 -11.48806235 -17.1880754 -12.50613165 0 0 Z M-42.44921875 21.8203125 C-46.15884872 26.49206575 -47.39996254 31.01066776 -47.07421875 36.9453125 C-46.22187992 42.69615032 -43.7153171 47.22891966 -39.35546875 51.08203125 C-33.38941986 55.49336825 -28.35466753 56.25856497 -21.13671875 55.5078125 C-14.920175 53.69419868 -10.67561337 49.83943663 -7.13671875 44.5078125 C-4.54721815 38.85799301 -4.34915365 33.42345275 -6.19921875 27.5078125 C-8.39630136 22.15567761 -12.31402878 17.90981083 -17.49609375 15.3359375 C-27.40432201 12.22862331 -35.48124419 14.40117412 -42.44921875 21.8203125 Z "
     fill="#FF624C"
     transform="translate(402.13671875,290.4921875)"
     id="path6"
     style="fill:#ff3d6e;fill-opacity:1" />
  <path
     d="M0 0 C13.22157816 7.06177469 20.366483 15.85394625 24.9609375 30.1640625 C27.27041647 42.64458019 24.84576715 54.2898604 18.0625 64.87109375 C11.11125624 74.52999739 1.39551535 80.94440476 -10.453125 83.0078125 C-24.25480191 84.5522275 -35.87126813 81.09071467 -46.8046875 72.578125 C-54.84964745 65.36699967 -60.12588432 54.65022968 -60.890625 43.90625 C-61.1622014 30.31313642 -58.0377227 19.21626793 -48.65234375 9.09765625 C-36.03511934 -2.97882997 -16.26197436 -7.21358059 0 0 Z M-34.02734375 26.62890625 C-38.09125901 31.81923281 -39.21828805 36.68895238 -38.65234375 43.25390625 C-37.27756308 50.68071054 -32.60990233 54.92604213 -26.65234375 59.25390625 C-21.31036529 61.03456574 -14.94224406 61.25413235 -9.51953125 59.60546875 C-3.96382459 56.69059126 0.14327005 51.88165795 2.72265625 46.25390625 C4.23569806 38.99130555 3.23947893 33.51268541 -0.65234375 27.25390625 C-4.62645114 22.82776769 -8.89671872 19.67119792 -14.90234375 19.00390625 C-22.94292913 18.61168257 -28.55865892 20.67147423 -34.02734375 26.62890625 Z "
     fill="#FF6F48"
     transform="translate(273.65234375,354.74609375)"
     id="path7"
     style="fill:#ff3d6e;fill-opacity:1" />
  <path
     d="M0 0 C8.04495995 7.21112533 13.32119682 17.92789532 14.0859375 28.671875 C14.3575139 42.26498858 11.2330352 53.36185707 1.84765625 63.48046875 C-8.53485152 73.4180119 -19.692931 75.82739256 -33.58984375 75.6015625 C-44.99556676 75.13100619 -54.60295831 69.26101342 -62.40234375 61.19921875 C-71.3376048 50.69449069 -72.88317397 38.57389989 -72.15234375 25.32421875 C-70.37543916 14.31644543 -63.89585832 4.14913967 -55.15234375 -2.67578125 C-36.81823056 -13.93137598 -17.13633142 -13.34208018 0 0 Z M-45.46484375 19.69921875 C-49.56951048 24.84373438 -50.81964281 29.76244465 -50.15234375 36.32421875 C-47.87787914 44.11460053 -43.71228899 48.61289996 -36.83984375 52.69921875 C-30.16530826 54.2514363 -23.99422094 54.10585082 -17.97265625 50.65625 C-12.93336016 46.96869642 -9.44008541 42.5053787 -8.15234375 36.32421875 C-7.64061513 30.79754964 -8.2620771 26.07830221 -11.15234375 21.32421875 C-15.4207674 16.74579785 -19.3625376 12.66219854 -25.82421875 12.0859375 C-34.68212251 11.8723586 -39.33018602 13.0643731 -45.46484375 19.69921875 Z "
     fill="#FFB32F"
     transform="translate(285.15234375,84.67578125)"
     id="path8"
     style="fill:#ffb240;fill-opacity:1" />
</svg>
